<svg xmlns="http://www.w3.org/2000/svg" width="178" height="28" fill="none" viewBox="0 0 178 28">
  <path fill="#7749EF" d="M2.69 28C.898 28 0 27.188 0 25.564V4.29c0-.849.206-1.467.618-1.855.412-.388 1.067-.581 1.964-.581 1.77 0 2.654.812 2.654 2.436v3.636c0 3.006-.084 4.8-.254 5.382.63-.63 1.309-1.067 2.036-1.309.727-.242 1.685-.364 2.873-.364h3.563V4.291c0-.849.207-1.467.619-1.855.412-.388 1.066-.581 1.963-.581 1.77 0 2.655.812 2.655 2.436v21.273c0 .824-.206 1.442-.618 1.854-.388.388-1.03.582-1.928.582-1.793 0-2.69-.812-2.69-2.436V14.8c-.146.436-.619.8-1.419 1.09-.8.268-1.733.4-2.8.4-1.527 0-2.581.316-3.163.946-.558.606-.837 1.734-.837 3.382v4.946c0 .824-.206 1.442-.618 1.854-.388.388-1.03.582-1.927.582Zm28.015 0c-2.594 0-4.642-.74-6.145-2.218-1.503-1.479-2.255-3.867-2.255-7.164 0-3.321.752-5.709 2.255-7.163 1.503-1.48 3.551-2.219 6.145-2.219 2.594 0 4.642.74 6.146 2.218 1.503 1.455 2.254 3.843 2.254 7.164 0 3.297-.751 5.685-2.254 7.164C35.347 27.26 33.299 28 30.705 28Zm0-4.364c.679 0 1.249-.133 1.71-.4.46-.29.811-.8 1.054-1.527.266-.727.4-1.758.4-3.09 0-1.334-.134-2.364-.4-3.092-.243-.727-.594-1.224-1.055-1.49-.46-.292-1.03-.437-1.709-.437-.654 0-1.224.146-1.709.436-.46.267-.824.764-1.09 1.491-.243.728-.364 1.758-.364 3.091 0 1.334.12 2.364.363 3.091.267.727.63 1.236 1.091 1.527.485.267 1.055.4 1.71.4ZM45.222 28c-1.745 0-2.618-.824-2.618-2.473V16.8c0-2.473.582-4.352 1.746-5.636 1.188-1.285 2.885-1.928 5.09-1.928 3.007 0 5.043 1.08 6.11 3.237 1.066-2.158 3.103-3.237 6.109-3.237 2.206 0 3.89.643 5.054 1.928 1.188 1.284 1.782 3.163 1.782 5.636v8.727c0 1.649-.873 2.473-2.618 2.473-1.745 0-2.618-.824-2.618-2.473v-8.436c0-1.237-.206-2.121-.618-2.655-.413-.557-1.055-.836-1.928-.836-1.745 0-2.618 1.164-2.618 3.49v8.292c0 1.648-.848 2.473-2.545 2.473s-2.546-.825-2.546-2.473V17.09c0-2.327-.872-3.491-2.618-3.491-1.697 0-2.545 1.164-2.545 3.49v8.437c0 1.649-.873 2.473-2.619 2.473Zm36.218 0c-2.424 0-4.327-.4-5.709-1.2-1.358-.8-2.327-1.903-2.91-3.31-.557-1.405-.835-3.017-.835-4.835 0-3.346.739-5.746 2.218-7.2 1.479-1.48 3.466-2.219 5.963-2.219 1.503 0 2.837.255 4 .764 1.164.51 2.073 1.236 2.728 2.182.654.921.981 2.048.981 3.382 0 3.878-2.763 5.818-8.29 5.818h-2.11c.194.751.51 1.345.946 1.782.46.412 1.26.618 2.4.618.63 0 1.14-.037 1.527-.11.388-.072.752-.145 1.091-.218a6.34 6.34 0 0 1 1.236-.108c.655 0 1.176.12 1.564.363.388.218.582.679.582 1.382 0 .994-.437 1.733-1.31 2.218-.848.46-2.205.691-4.072.691Zm-4.218-9.31c.194-.266.412-.436.654-.508.243-.097.619-.146 1.128-.146 1.43 0 2.412-.133 2.945-.4.558-.29.837-.8.837-1.527 0-.921-.255-1.624-.764-2.109-.51-.51-1.152-.764-1.927-.764-.897 0-1.6.376-2.11 1.128-.509.751-.763 2.194-.763 4.327Zm23.964 9.274c-2.619 0-4.704-.485-6.255-1.455-1.527-.97-2.63-2.4-3.31-4.29-.654-1.916-.98-4.292-.98-7.128 0-2.836.326-5.236.98-7.2.68-1.988 1.783-3.491 3.31-4.51 1.552-1.017 3.636-1.526 6.255-1.526.945 0 1.866.084 2.763.254.921.17 1.673.473 2.255.91.606.436.909 1.066.909 1.89 0 .606-.218 1.115-.655 1.527-.436.412-1.139.619-2.109.619a9.895 9.895 0 0 1-1.782-.182c-.654-.146-1.418-.218-2.291-.218-1.697 0-2.824.69-3.381 2.072-.534 1.358-.8 3.48-.8 6.364 0 2.885.351 4.958 1.054 6.218.703 1.236 1.746 1.855 3.127 1.855 2.91 0 4.364-1.225 4.364-3.673 0-1.115.17-1.879.509-2.291l-2.545.036c-.752.025-1.334-.12-1.746-.436-.388-.315-.582-.86-.582-1.636 0-.776.194-1.322.582-1.637.412-.315.994-.472 1.746-.472h3.854c.849 0 1.479.109 1.891.327.412.194.679.618.8 1.273.146.63.218 1.587.218 2.872 0 2.255-.23 4.158-.691 5.71-.46 1.55-1.284 2.727-2.472 3.527-1.164.8-2.837 1.2-5.018 1.2Zm17.077-2.4c0 1.624-.848 2.436-2.545 2.436-.825 0-1.479-.206-1.964-.618-.485-.412-.727-1.018-.727-1.818V2.836c0-.872.194-1.563.582-2.072.412-.51 1.09-.764 2.036-.764.945 0 1.612.255 2 .764.412.509.618 1.2.618 2.072v22.728ZM130.208 28c-2.594 0-4.642-.74-6.146-2.218-1.503-1.479-2.254-3.867-2.254-7.164 0-3.321.751-5.709 2.254-7.163 1.504-1.48 3.552-2.219 6.146-2.219s4.642.74 6.145 2.218c1.503 1.455 2.255 3.843 2.255 7.164 0 3.297-.752 5.685-2.255 7.164S132.802 28 130.208 28Zm0-4.364c.679 0 1.248-.133 1.709-.4.461-.29.812-.8 1.055-1.527.266-.727.4-1.758.4-3.09 0-1.334-.134-2.364-.4-3.092-.243-.727-.594-1.224-1.055-1.49-.461-.292-1.03-.437-1.709-.437-.655 0-1.224.146-1.709.436-.461.267-.824.764-1.091 1.491-.242.728-.364 1.758-.364 3.091 0 1.334.122 2.364.364 3.091.267.727.63 1.236 1.091 1.527.485.267 1.054.4 1.709.4ZM150.366 28c-2.618 0-4.655-.812-6.109-2.436-1.455-1.625-2.182-4.073-2.182-7.346V2.836c0-1.89.885-2.836 2.655-2.836 1.624 0 2.436.945 2.436 2.836v3.128c0 .945-.024 1.72-.073 2.327a9.693 9.693 0 0 1-.182 1.6 9.406 9.406 0 0 1-.363 1.418 3.804 3.804 0 0 1 1.891-1.6c.824-.315 1.866-.473 3.127-.473 1.454 0 2.739.28 3.854.837 1.116.533 1.988 1.442 2.619 2.727.63 1.285.945 3.018.945 5.2 0 3.273-.776 5.758-2.327 7.454-1.527 1.697-3.624 2.546-6.291 2.546Zm.254-4.364c1.019 0 1.807-.363 2.364-1.09.582-.728.873-2.085.873-4.073 0-1.334-.134-2.34-.4-3.018-.243-.704-.606-1.188-1.091-1.455-.485-.267-1.067-.4-1.746-.4-.678 0-1.26.133-1.745.4-.485.267-.861.752-1.127 1.454-.243.68-.364 1.685-.364 3.019 0 1.988.279 3.345.836 4.073.582.727 1.382 1.09 2.4 1.09ZM171 28c-2.425 0-4.328-.4-5.709-1.2-1.358-.8-2.328-1.903-2.909-3.31-.558-1.405-.837-3.017-.837-4.835 0-3.346.74-5.746 2.218-7.2 1.479-1.48 3.467-2.219 5.964-2.219 1.503 0 2.836.255 4 .764 1.164.51 2.073 1.236 2.727 2.182.655.921.982 2.048.982 3.382 0 3.878-2.764 5.818-8.291 5.818h-2.109c.194.751.509 1.345.946 1.782.46.412 1.26.618 2.4.618.63 0 1.139-.037 1.527-.11a43.34 43.34 0 0 0 1.091-.218 6.33 6.33 0 0 1 1.236-.108c.655 0 1.176.12 1.564.363.388.218.582.679.582 1.382 0 .994-.437 1.733-1.31 2.218-.848.46-2.206.691-4.072.691Zm-4.218-9.31c.193-.266.412-.436.654-.508.242-.097.618-.146 1.127-.146 1.431 0 2.412-.133 2.946-.4.557-.29.836-.8.836-1.527 0-.921-.254-1.624-.763-2.109-.51-.51-1.152-.764-1.928-.764-.897 0-1.6.376-2.109 1.128-.509.751-.763 2.194-.763 4.327Z"/>
</svg>
